# xmcd
#
# Track frame offsets:
#	150
#	12915
#	23690
#	39851
#	64621
#	76297
#	88029
#	106194
#	124334
#	135783
#	152600
#	171504
#	191188
#	201818
#	215486
#	225089
#	244040
#	264409
#	275736
#	289788
#	307797
#
# Disc length: 4308 seconds
#
# Revision: 1
# Processed by: cddbd v1.4PL0 Copyright (c) Steve Scherf et al.
# Submitted via: audiograbber 1.82.01
#
DISCID=1110d215
DTITLE=Igor Flach - The Best of 1992-1998
DYEAR=1900
DGENRE=Blues 
TTITLE0=Story vom Heroin (Instrumentalversion)
TTITLE1=Surprise
TTITLE2=Hashish Habit
TTITLE3=Dont be denied
TTITLE4=÷‰hhh!
TTITLE5=Peterei (Instrumentalversion)
TTITLE6=On Brodway
TTITLE7=Die ‹berlebenszitze
TTITLE8=UB 52
TTITLE9=A freak ah!
TTITLE10=Our Love
TTITLE11=Marie-Johanna-Ernte od. Der T‰ter
TTITLE12=Es wird besser (Instrumentalversion)
TTITLE13=Berlin (Instrumentalversion)
TTITLE14=Dat Crawfish
TTITLE15=One step ahead of the Blues
TTITLE16=I'm evil
TTITLE17=Der Fuﬂtritt (Instrumentalversion)
TTITLE18=Das Lied von der Unschuld der Erde (Instrumentalversion)
TTITLE19=The Waltz
TTITLE20=Amazing grace
EXTD=Promo-CD
EXTT0=
EXTT1=
EXTT2=
EXTT3=
EXTT4=
EXTT5=
EXTT6=
EXTT7=
EXTT8=
EXTT9=
EXTT10=
EXTT11=
EXTT12=
EXTT13=
EXTT14=
EXTT15=
EXTT16=
EXTT17=
EXTT18=
EXTT19=Bonustrack
EXTT20=Bonustrack
PLAYORDER=
